<?xml version="1.0" standalone="no"?>
<!DOCTYPE svg PUBLIC "-//W3C//DTD SVG 20010904//EN"
 "http://www.w3.org/TR/2001/REC-SVG-20010904/DTD/svg10.dtd">
<svg version="1.0" xmlns="http://www.w3.org/2000/svg"
 width="225.000000pt" height="225.000000pt" viewBox="0 0 225.000000 225.000000"
 preserveAspectRatio="xMidYMid meet">
<metadata>
Created by potrace 1.14, written by Peter Selinger 2001-2017
</metadata>
<g transform="translate(0.000000,225.000000) scale(0.100000,-0.100000)"
fill="#000000" stroke="none">
<path d="M976 2170 c-233 -37 -453 -152 -614 -319 -336 -351 -385 -901 -116
-1306 141 -213 370 -376 619 -441 88 -24 119 -27 260 -27 143 0 171 3 260 27
307 83 549 281 686 561 255 521 38 1149 -486 1406 -138 68 -267 99 -425 104
-69 2 -152 0 -184 -5z m327 -540 c87 -13 134 -37 186 -96 76 -86 91 -215 38
-320 -27 -53 -46 -73 -90 -96 l-29 -14 40 -26 c62 -42 75 -81 81 -245 5 -127
8 -144 29 -172 13 -17 20 -36 17 -41 -4 -6 -57 -10 -120 -10 l-114 0 -10 38
c-5 20 -11 91 -14 158 -9 196 -18 204 -227 204 l-140 0 0 -200 0 -201 -102 3
-103 3 -3 500 c-1 275 0 506 3 513 6 15 453 17 558 2z"/>
<path d="M955 1448 c-3 -8 -4 -69 -3 -137 l3 -123 154 1 c205 2 231 17 231
132 0 61 -19 100 -57 119 -42 20 -321 27 -328 8z"/>
</g>
</svg>
